<svg fill="none" height="426" viewBox="0 0 567 426" width="567" xmlns="http://www.w3.org/2000/svg" xmlns:xlink="http://www.w3.org/1999/xlink"><linearGradient id="a"><stop offset="0" stop-color="#6d3929"/><stop offset=".39" stop-color="#743f2d"/><stop offset=".99" stop-color="#8a503a"/><stop offset="1" stop-color="#8b513b"/></linearGradient><linearGradient id="b" gradientUnits="userSpaceOnUse" x1="290.429" x2="314.087" xlink:href="#a" y1="160.69" y2="204.896"/><linearGradient id="c" gradientUnits="userSpaceOnUse" x1="323.341" x2="329.881" xlink:href="#a" y1="130.876" y2="146.75"/><linearGradient id="d" gradientUnits="userSpaceOnUse" x1="349.023" x2="428.219" y1="357.381" y2="278.162"><stop offset="0" stop-color="#49995d"/><stop offset=".21" stop-color="#41a062"/><stop offset=".53" stop-color="#2bb570"/><stop offset=".92" stop-color="#07d888"/><stop offset="1" stop-color="#00e08e"/></linearGradient><linearGradient id="e" gradientUnits="userSpaceOnUse" x1="284.286" x2="307.944" xlink:href="#a" y1="163.972" y2="208.179"/><linearGradient id="f" gradientUnits="userSpaceOnUse" x1="252.941" x2="182.014" y1="443.953" y2="373.005"><stop offset=".34" stop-color="#49995d"/><stop offset=".43" stop-color="#419f61"/><stop offset=".58" stop-color="#2eb36f"/><stop offset=".75" stop-color="#0dd284"/><stop offset=".82" stop-color="#00e08e"/></linearGradient><mask id="g" height="426" maskUnits="userSpaceOnUse" width="567" x="0" y="0"><path d="m566.284 0h-566.284v425.427h566.284z" fill="#fff"/></mask><mask id="h" height="29" maskUnits="userSpaceOnUse" width="38" x="235" y="102"><path d="m240.953 102.102s-4.176 6.862-4.999 20.711c-.767 12.877 35.428 5.592 35.428 5.592l1.247-14.364z" fill="#fff"/></mask><g mask="url(#g)"><path d="m268.579 161.833 17.869 49.13h50.952l-21.484-60.383z" fill="url(#b)"/><path d="m258.593 78.132c-21.324 16.1021-30.956 53.03-14.163 73.786 12.721 15.725 51.147 19.488 72.47 3.385 21.324-16.102 25.545-46.419 9.449-67.7362-16.095-21.317-46.433-25.537-67.756-9.4463z" fill="#8a513b"/><path d="m241.937 99.0032c4.839 0 8.762-3.9221 8.762-8.7602 0-4.838-3.923-8.7601-8.762-8.7601-4.84 0-8.763 3.9221-8.763 8.7601 0 4.8381 3.923 8.7602 8.763 8.7602z" fill="#8a513b"/><path d="m245.357 82.169s5.468 1.7497 11.966-3.042l9.392 6.4385-17.594 12.1453-3.764-15.5304z" fill="#8a513b"/><path d="m272.034 85.4395-7.905 7.9138c-2.002 2.0014-2.002 5.2492 0 7.2507 2.002 2.001 5.251 2.001 7.253 0l7.905-7.914c2.002-2.0013 2.002-5.2492 0-7.2505-2.002-2.0014-5.251-2.0014-7.253 0z" fill="#000"/><path d="m308.652 31.3122c-3.763-6.1298-8.328-12.0309-14.597-15.5533-6.268-3.5223-14.551-4.1971-20.454-.08-2.619 1.8298-4.678 4.4944-7.595 5.8096-1.648.7433-3.478.9949-5.183 1.601-8.865 3.1221-12.023 14.8442-9.014 23.7416 3.009 8.8973 10.33 15.5418 17.365 21.7631 6.555 5.7981 13.774 11.8936 22.502 12.6141 4.965.4117 10.101-.995 14.883.4346 2.002.5946 3.855 1.6811 5.903 2.0699 11.954 2.2987 14.62-13.5519 12.458-21.6601-2.803-10.4527-10.651-21.603-16.256-30.7405z" fill="#010407"/><path d="m346.243 126.05s9.781-18.058 39.387-21.489c28.427-3.294 31.905 20.242 30.795 29.94-.847 7.411-4.004 22.564-34.834 20.642-29.457-1.83-36.332-19.521-35.348-29.093z" fill="#010407"/><path d="m306.547 81.6316s9.198 12.7857 7.539 26.8984c-1.659 14.123-2.494 25.742 6.223 25.742s31.562-6.644 31.562-6.644 47.326-52.6408-26.963-65.5866c-47.063-8.1998-18.361 19.5788-18.361 19.5788z" fill="#010407"/><path d="m266.783 198.933s13.762 1.052 16.531 19.144l-3.924 2.687-15.261-6.999 2.643-14.832z" fill="#fff"/><path d="m245.929 207.235h27.512v65.37h-58.022v-34.881c0-16.834 13.671-30.489 30.498-30.489z" fill="#00e08e"/><path d="m329.45 166.385c12.383 0 22.421-10.035 22.421-22.415 0-12.379-10.038-22.415-22.421-22.415-12.384 0-22.422 10.036-22.422 22.415 0 12.38 10.038 22.415 22.422 22.415z" fill="#8a513b"/><path d="m329.45 160.381c8.106 0 14.677-6.569 14.677-14.673 0-8.103-6.571-14.672-14.677-14.672s-14.677 6.569-14.677 14.672c0 8.104 6.571 14.673 14.677 14.673z" fill="url(#c)"/><path d="m273.441 207.235h68.627l-4.119 101.485-98.163-9.961v-57.867c0-18.584 15.066-33.645 33.655-33.645z" fill="#00e08e"/><path d="m243.55 262.644h52.462l5.399 224.446-70.102-17.749-11.92-163.114z" fill="#000"/><path d="m356.71 455.023s13.076 34.72 17.434 46.557c0 0 62.735 18.103 89.058-22.278 24.675-37.842 8.751-110.851-15.879-155.704h16.771c5.228-1.498 6.784-8.176 2.7-11.756-9.438-8.28-23.943-23.776-30.967-45.436 0 0-18.086 1.532-25.556-13.094z" fill="#fff"/><path d="m389.405 234.979s51.695-3.271 53.983 68.755c2.128 66.924-53.983-68.755-53.983-68.755z" fill="#fff"/><path d="m366.205 198.933s14.528.732 16.759 20.859l-4.152.984-15.261-6.999 2.643-14.833z" fill="#fff"/><path d="m344.355 207.235h23.829c18.75 0 34.914 13.198 38.655 31.564l36.538 179.08-89.938-41.091z" fill="url(#d)"/><g mask="url(#h)"><path d="m233.517 108.77s7.527 7.479 31.242 8.314" stroke="#6d3929" stroke-linecap="round" stroke-miterlimit="10" stroke-width="9"/></g><path d="m279.413 207.235s-4.416 12.66 5.742 13.541c20.168 1.761 44.283-3.042 55.574-13.895l-4.793.023-3.535-9.984-50.334 2.001 2.917 8.269-5.571.034z" fill="url(#e)"/><path d="m369.751 204.857-47.6 96.384-22.422-9.961 41.023-84.399c2.437-4.872 7.413-7.948 12.858-7.948h12.515c3.043 0 5.011 3.213 3.638 5.924z" fill="#fff"/><path d="m270.33 204.857-32.477 63.802-22.422-9.961 25.899-51.817c2.437-4.872 7.413-7.948 12.858-7.948h12.515c3.043 0 5.011 3.213 3.638 5.924z" fill="#fff"/><path d="m332.058 166.385c0 7.56-6.12 13.678-13.682 13.678-7.561 0-13.682-6.118-13.682-13.678 0-7.559 6.121-13.677 13.682-13.677 3.112 0 5.972 1.04 8.271 2.779" stroke="#010407" stroke-miterlimit="10" stroke-width="3"/><path d="m288.324 303.734-59.806-7.468-9.129 51.051v93.388l134.93-5.809-44.66-126.176z" fill="#000"/><path d="m298.414 298.965s-2.425 43.057 24.035 67.348l18.646-19.339z" fill="#fff"/><path d="m368.447 320.671-16.393-63.791c-1.304-5.078-4.152-9.63-8.156-13.038l-16.679-14.181c-2.826-2.401-7.058-2.573-9.861-.137-2.288 1.99-4.21 5.821-4.21 13.06l-3.477-1.12c-2.918-.938-6.212-.172-8.191 2.161-2.094 2.47-3.524 6.656-.881 13.483l-2.677-.949c-2.826-1.006-5.354-.149-7.173 3.054-2.253 3.968-1.201 19.761-1.201 19.761-1.292.584-2.345 1.693-2.825 3.157 0 0-1.636 4.7-1.556 10.647.08 5.421 1.556 16.765 7.264 24.176 1.647 2.15 7.585 1.498 7.31-3.054-.561-9.492-.458-11.218-.458-11.218l12.767 24.427s3.077 7.262 11.668 8.806l9.369 18.264 35.36-33.497z" fill="#8a513b"/><path d="m377.976 468.209s31.974 83.015 83.658 165.791h-143.864c-38.312-59.743-51.536-148.854-25.534-153.886 1.957-.377-2.287-55.122-2.287-55.122h80.237z" fill="#000"/><path d="m367.818 308.72s-32.729 33.989-54.075 45.448c-8.408 4.517-7.287 16.811-1.682 23.661 5.606 6.85 15.57 13.849 25.042 27.859 9.472 14.009 20.465 60.76 52.931 66.707 44.546 8.166 65.846-28.087 45.77-81.837-9.598-25.709-67.986-81.838-67.986-81.838z" fill="#00e08e"/><path d="m188.365 325.577-7.711-45.711c-1.818-10.795 1.362-21.82 8.649-29.985l16.313-18.275c2.631-2.951 6.154-4.941 10.021-5.696 6.143-1.189 15.226-3.179 18.44-3.35 10.777-.561 15.375 13.117 18.098 20.013 2.711 6.896 1.132 9.046-4.073 11.082l3.959 8.623c1.864 3.979-1.27 10.338-8.706 9.126l4.301 2.996c4.153 2.962 3.65 11.448-3.901 12.465h10.857c5.834-.251 9.334 12.123-4.016 13.93-13.338 1.807-37.625-.904-37.625-.904l-1.521 34.366-23.085-8.657z" fill="#8a513b"/><path d="m229.662 339.221-43.299-17.681s-17.411-11.585-16.805 12.694c.938 37.351-11.966 50.434-11.909 81.243.023 10.213 5.549 21.9 14.094 28.328 12.607 9.503 31.402 11.161 41.103 9.263 13.189-2.585 15.969-23.376 21.483-35.212l-4.667-78.658z" fill="url(#f)"/><path d="m227.477 301.046 2.185 38.174-23.04-9.549c-2.024-18 2.185-30.717 2.185-30.717l18.67 2.081z" fill="#fff"/><path d="m234.329 417.878s-86.357 93.915-110.438 216.133h125.493c15.615-66.913 31.287-106.013 46.628-140.688 13.476-30.466 13.636-68.88 13.636-68.88z" fill="#000"/><g fill="#00e08e"><path d="m440.357 233.893c0-4.917 3.409-8.314 8.316-8.314 4.908 0 8.317 3.408 8.317 8.314s-3.409 8.131-8.317 8.131c-4.907 0-8.316-3.305-8.316-8.131z"/><path d="m98.4951 59.7273v-10.6814l41.5139-20.1392v9.5493l-28.37 13.5176c-2.459 1.1321-5.01 1.9898-6.143 2.2643 1.224.2859 3.878 1.0407 6.143 2.1729l28.37 13.6091v9.8351l-41.5139-20.1391z"/><path d="m469.31 159.81 28.268-13.518c2.459-1.132 5.01-1.887 6.143-2.173-1.224-.286-3.787-1.132-6.143-2.264l-28.268-13.518v-9.835l41.515 20.139v10.682l-41.515 20.139v-9.641z"/><path d="m78.7046 349.536h30.2574v9.263h-30.2574z"/><path d="m490.062 316.371h10.215c0 6.713 4.256 10.876 11.257 10.876s11.257-4.163 11.257-10.876v-4.918c0-6.896-4.256-11.059-11.257-11.059h-8.042v-8.508l16.359-16.548h-27.616v-9.081h38.952v8.978l-16.267 16.445c11.154 1.132 18.063 8.509 18.063 19.659v5.009c0 12.191-8.316 19.853-21.563 19.853s-21.37-7.662-21.37-19.853z"/><path d="m166.092 181.984h-7.665v-7.09h8.889l3.123-17.017h-8.706v-7.182h9.838l3.501-18.813h7.47l-3.501 18.813h14.277l3.501-18.813h7.47l-3.501 18.813h7.756v7.182h-8.888l-3.123 17.017h8.694v7.09h-9.93l-3.409 18.904h-7.47l3.409-18.904h-14.277l-3.409 18.904h-7.47l3.409-18.904zm22.982-7.09 3.123-17.017h-14.277l-3.123 17.017z"/></g><path d="m448.673 374.341h66.842" stroke="#00e08e" stroke-linecap="round" stroke-miterlimit="10" stroke-width="3"/><path d="m464.609 398.22h101.675" stroke="#00e08e" stroke-linecap="round" stroke-miterlimit="10" stroke-width="3"/></g></svg>